<?xml version="1.0" standalone="no"?>
<!DOCTYPE svg PUBLIC "-//W3C//DTD SVG 20010904//EN"
 "http://www.w3.org/TR/2001/REC-SVG-20010904/DTD/svg10.dtd">
<svg version="1.0" xmlns="http://www.w3.org/2000/svg"
 width="470.000000pt" height="470.000000pt" viewBox="0 0 470.000000 470.000000"
 preserveAspectRatio="xMidYMid meet">
<metadata>
Created by potrace 1.14, written by Peter Selinger 2001-2017
</metadata>
<g transform="translate(0.000000,470.000000) scale(0.100000,-0.100000)"
fill="#000000" stroke="none">
<path d="M2320 4665 c-14 -8 -45 -17 -70 -20 -25 -4 -61 -11 -80 -15 -45 -11
-89 -17 -175 -25 -83 -7 -125 -14 -137 -21 -4 -3 -22 -7 -40 -9 -64 -9 -194
-42 -238 -62 -25 -11 -81 -35 -125 -53 -44 -19 -82 -36 -85 -39 -13 -15 -90
-51 -108 -51 -12 0 -25 -6 -29 -12 -4 -7 -24 -22 -43 -32 -57 -31 -193 -122
-221 -147 -14 -13 -59 -46 -100 -74 -85 -57 -308 -274 -334 -326 -10 -18 -21
-36 -24 -39 -17 -13 -51 -70 -52 -87 0 -10 -14 -40 -29 -68 -43 -77 -106 -208
-196 -410 -10 -22 -27 -53 -38 -70 -12 -16 -20 -32 -19 -35 5 -9 -19 -74 -37
-105 -15 -25 -27 -65 -35 -120 -1 -5 -3 -12 -4 -15 -3 -6 -8 -27 -15 -60 -3
-14 -10 -47 -16 -75 -6 -27 -13 -72 -16 -100 -3 -27 -8 -57 -11 -65 -5 -15
-10 -58 -13 -140 -3 -50 7 -230 15 -300 7 -55 25 -138 54 -245 12 -44 23 -87
25 -95 8 -40 29 -108 42 -137 8 -18 26 -61 39 -97 13 -35 40 -98 59 -140 20
-43 36 -82 36 -87 0 -20 34 -76 100 -164 37 -49 78 -108 90 -130 32 -58 85
-136 112 -165 13 -14 36 -42 52 -63 27 -37 172 -185 212 -218 23 -18 140 -105
180 -134 103 -73 536 -284 618 -301 10 -2 33 -8 50 -14 83 -27 401 -82 501
-87 144 -7 285 -3 430 13 33 4 76 8 95 9 43 4 112 19 167 39 22 8 44 12 47 9
3 -4 6 -1 6 5 0 7 9 12 21 12 51 0 490 175 539 215 18 15 139 85 143 83 6 -5
65 41 92 71 54 62 119 123 175 165 30 22 59 48 64 56 13 20 115 119 144 137
19 13 73 77 163 193 10 13 20 28 20 32 1 4 2 12 3 17 0 5 15 30 32 57 53 84
82 137 104 194 11 30 32 79 45 108 14 29 25 56 25 60 0 4 7 20 15 35 17 32
110 307 119 352 15 71 19 142 18 330 -1 313 -8 508 -20 535 -16 37 -78 236
-97 310 -60 238 -122 401 -180 471 -25 30 -60 72 -78 94 -18 22 -49 63 -67 90
-44 65 -84 110 -195 220 -202 200 -259 244 -520 398 -11 7 -22 15 -25 18 -7 9
-180 99 -180 93 0 -2 -17 6 -37 17 -47 27 -143 63 -268 100 -137 42 -162 47
-225 50 -30 1 -68 7 -85 12 -16 5 -46 8 -66 8 -19 -1 -48 5 -64 13 -19 10 -33
12 -41 5 -7 -6 -21 -6 -37 0 -14 5 -28 7 -31 4 -3 -4 -6 -2 -6 3 0 5 -17 9
-38 9 -20 0 -46 5 -57 12 -16 9 -25 9 -45 -2z"/>
</g>
</svg>
